<svg width="18" height="16" viewBox="0 0 18 16" fill="none" xmlns="http://www.w3.org/2000/svg">
    <path d="M8.25 3.479V0.479004H9.75V3.479H8.25ZM13.4375 5.604L12.375 4.5415L14.5 2.39567L15.5625 3.479L13.4375 5.604ZM14.5 9.729V8.229H17.5V9.729H14.5ZM14.4792 15.5207L12.3958 13.3748L13.4167 12.3332L15.5625 14.4373L14.4792 15.5207ZM4.5625 5.604L2.45833 3.479L3.5 2.4165L5.64583 4.5415L4.5625 5.604ZM4.5 14.4998H7.75C8.09722 14.4998 8.39236 14.3769 8.63542 14.1309C8.87847 13.885 9 13.5864 9 13.235C9 12.8838 8.87993 12.5866 8.63979 12.3436C8.39965 12.1005 8.10306 11.979 7.75 11.979H7L6.95833 11.6665C6.86111 11.0415 6.58333 10.5241 6.125 10.1144C5.66667 9.7047 5.125 9.49984 4.5 9.49984C3.80556 9.49984 3.21528 9.73942 2.72917 10.2186C2.24306 10.6978 2 11.2866 2 11.985C2 12.6837 2.24306 13.2774 2.72917 13.7663C3.21528 14.2553 3.80556 14.4998 4.5 14.4998ZM4.5 15.9998C3.39333 15.9998 2.45 15.608 1.67 14.8242C0.89 14.0403 0.5 13.0924 0.5 11.9805C0.5 10.8684 0.89 9.92692 1.67 9.15609C2.45 8.38525 3.39333 7.99984 4.5 7.99984C5.33333 7.99984 6.08333 8.229 6.75 8.68734C7.41667 9.14567 7.90972 9.75678 8.22917 10.5207C8.89583 10.6318 9.44097 10.9443 9.86458 11.4582C10.2882 11.9721 10.5 12.5623 10.5 13.229C10.5 13.9929 10.231 14.6457 9.69292 15.1873C9.15486 15.729 8.50722 15.9998 7.75 15.9998H4.5ZM10.4583 12.7082C10.3472 12.4859 10.2326 12.2603 10.1146 12.0311C9.99653 11.8019 9.88194 11.5762 9.77083 11.354C10.2986 11.2012 10.7188 10.903 11.0313 10.4594C11.3438 10.0158 11.5 9.52234 11.5 8.979C11.5 8.28456 11.2552 7.69775 10.7656 7.21859C10.276 6.73942 9.6875 6.49984 9 6.49984C8.375 6.49984 7.82972 6.6922 7.36417 7.07692C6.89861 7.4615 6.62444 7.9497 6.54167 8.5415C6.30556 8.45817 6.06597 8.37137 5.82292 8.28109C5.57986 8.19081 5.34028 8.104 5.10417 8.02067C5.34028 7.13178 5.81944 6.40609 6.54167 5.84359C7.26389 5.28109 8.08333 4.99984 9 4.99984C10.1111 4.99984 11.0556 5.38671 11.8333 6.16046C12.6111 6.93421 13 7.87373 13 8.979C13 9.81234 12.7708 10.5693 12.3125 11.2498C11.8542 11.9304 11.2361 12.4165 10.4583 12.7082Z" fill="#1E124A"/>
</svg>
